# xmcd
#
# Track frame offsets: 
#        150
#        15874
#        31923
#        51072
#        68994
#        99716
#        117260
#        132416
#        161710
#        175469
#        186914
#
# Disc length: 2725 seconds
#
# Revision: 0
# Processed by: cddbd v1.5.2PL0 Copyright (c) Steve Scherf et al.
# Submitted via: ExactAudioCopy v1.0b4
#
DISCID=930aa30b
DTITLE=Oklahoma Ollie and the Blues Stand Band - Good Man Around
DYEAR=2008
DGENRE=Blues
TTITLE0=A Believer
TTITLE1=Keep Doin' It
TTITLE2=Southside Woman
TTITLE3=Good Man Around
TTITLE4=Mail Lady
TTITLE5=Short Dress
TTITLE6=Gotter Have You Love Me
TTITLE7=Something Hit Me
TTITLE8=To Tell The Truth
TTITLE9=Leave Her Alone
TTITLE10=Just What You Hear
EXTD=
EXTT0=
EXTT1=
EXTT2=
EXTT3=
EXTT4=
EXTT5=
EXTT6=
EXTT7=
EXTT8=
EXTT9=
EXTT10=
PLAYORDER=
